<?xml version="1.0" encoding="UTF-8"?>
<svg width="14px" height="14px" viewBox="0 0 14 14" version="1.1" xmlns="http://www.w3.org/2000/svg" xmlns:xlink="http://www.w3.org/1999/xlink">
    <title>16px/线性/通用/向上</title>
    <g id="云平台-场景管理1.1" stroke="none" stroke-width="1" fill="none" fill-rule="evenodd">
        <g id="场景管理-我的场景-具体场景-进入某一场景集" transform="translate(-194, -193)">
            <g id="侧边导航备份" transform="translate(0, 60)">
                <g id="侧边导航/亮色-二级菜单-收起" transform="translate(8, 120)">
                    <g id="Group" transform="translate(186, 13)">
                        <rect id="矩形" fill-opacity="0" fill="#FFFFFF" x="0" y="0" width="14" height="14"></rect>
                        <path d="M11.837521,3.96252104 C12.0653269,3.73471521 12.4346731,3.73471521 12.662479,3.96252104 C12.8675042,4.1675463 12.8880067,4.48721928 12.7239865,4.71517407 L12.662479,4.78747896 L7.41247896,10.037479 C7.2074537,10.2425042 6.88778072,10.2630067 6.65982593,10.0989865 L6.58752104,10.037479 L1.33752104,4.78747896 C1.10971521,4.55967312 1.10971521,4.19032688 1.33752104,3.96252104 C1.5425463,3.75749579 1.86221928,3.73699327 2.09017407,3.90101347 L2.16247896,3.96252104 L7,8.799875 L11.837521,3.96252104 Z" id="路径" fill="#B1B6C3" transform="translate(7, 7) scale(1, -1) translate(-7, -7)"></path>
                    </g>
                </g>
            </g>
        </g>
    </g>
</svg>