<?xml version="1.0" encoding="UTF-8"?>
<svg width="16px" height="16px" viewBox="0 0 16 16" version="1.1" xmlns="http://www.w3.org/2000/svg" xmlns:xlink="http://www.w3.org/1999/xlink">
    <title>icon_doubleright16</title>
    <g id="云平台-个人中心" stroke="none" stroke-width="1" fill="none" fill-rule="evenodd">
        <g id="管理端-系统管理-企业管理" transform="translate(-1466.999, -197.999)">
            <g id="4.数据录入/日期选择框/选择-年月日区间2" transform="translate(935, 182)">
                <g id="Group-3188" transform="translate(280, 0)">
                    <g id="Group" transform="translate(259.999, 23.999) rotate(-360) translate(-259.999, -23.999)translate(251.999, 15.999)">
                        <rect id="矩形" fill-opacity="0" fill="#FFFFFF" x="0" y="0" width="16" height="16"></rect>
                        <path d="M6.86192881,1.52859548 C7.12227834,1.26824595 7.54438833,1.26824595 7.80473785,1.52859548 L13.8047379,7.52859548 L13.8436821,7.5710004 C14.0643662,7.83292955 14.0513848,8.2247576 13.8047379,8.47140452 L7.80473785,14.4714045 L7.76233293,14.5103488 C7.50040379,14.7310329 7.10857573,14.7180514 6.86192881,14.4714045 L6.82298456,14.4289996 C6.60230047,14.1670705 6.61528189,13.7752424 6.86192881,13.5285955 L12.3903333,8 L6.86192881,2.47140452 L6.82298456,2.4289996 C6.60230047,2.16707045 6.61528189,1.7752424 6.86192881,1.52859548 Z M2.19526215,1.52859548 C2.45561167,1.26824595 2.87772166,1.26824595 3.13807119,1.52859548 L9.13807119,7.52859548 L9.17701544,7.5710004 C9.39769953,7.83292955 9.38471811,8.2247576 9.13807119,8.47140452 L3.13807119,14.4714045 L3.09566626,14.5103488 C2.83373712,14.7310329 2.44190907,14.7180514 2.19526215,14.4714045 L2.1563179,14.4289996 C1.93563381,14.1670705 1.94861522,13.7752424 2.19526215,13.5285955 L7.72366667,8 L2.19526215,2.47140452 L2.1563179,2.4289996 C1.93563381,2.16707045 1.94861522,1.7752424 2.19526215,1.52859548 Z" id="形状结合" fill-opacity="0.6" fill="#171F26"></path>
                    </g>
                </g>
            </g>
        </g>
    </g>
</svg>