<?xml version="1.0" encoding="UTF-8"?>
<svg width="14px" height="14px" viewBox="0 0 14 14" version="1.1" xmlns="http://www.w3.org/2000/svg" xmlns:xlink="http://www.w3.org/1999/xlink">
    <title>14px/线性/通用/向下</title>
    <g id="云仿真设计稿" stroke="none" stroke-width="1" fill="none" fill-rule="evenodd">
        <g id="云仿真-评测指标管理" transform="translate(-194, -481)">
            <rect fill="#F2F3F5" x="0" y="0" width="1440" height="969"></rect>
            <g id="左侧导航栏" transform="translate(0, 60)">
                <polygon id="矩形" fill="#FFFFFF" points="0 0 232 0 232 980 0 980"></polygon>
                <g id="Group-6" transform="translate(8, 72)">
                    <g id="Group-7" transform="translate(0, 336)">
                        <g id="侧边导航/亮色-二级菜单-收起">
                            <rect id="矩形" fill-opacity="0.08" fill="#FFFFFF" x="0" y="0" width="216" height="40" rx="2"></rect>
                            <g id="Group" transform="translate(17, 12)">
                                <polygon id="路径" points="0 0 16 0 16 16 0 16"></polygon>
                                <path d="M14.2788619,10.528724 L15.5,11.4138982 L8,15.3096543 L0.5,11.4138982 L1.790928,10.5851528 L8,13.6913863 L14.2788619,10.528724 Z M14.2788619,7.169653 L15.5,8.05482725 L8,11.9505833 L0.5,8.05482725 L1.790928,7.2260818 L8,10.3323153 L14.2788619,7.169653 Z M8,0.8 L15.5,4.69575604 L8,8.59151208 L0.5,4.69575604 L8,0.8 Z M8,2.41098278 L3.6008493,4.6954682 L8,6.97995363 L12.3991507,4.6954682 L8,2.41098278 Z" id="Combined-Shape" fill="#60656E" fill-rule="nonzero"></path>
                            </g>
                            <text id="导航类三" font-family="PingFangSC-Regular, PingFang SC" font-size="14" font-weight="normal" line-spacing="22" fill="#1E2229">
                                <tspan x="42" y="24">地图管理</tspan>
                            </text>
                        </g>
                        <g id="图标/14px/向下" transform="translate(186, 13)">
                            <rect id="矩形" fill-opacity="0" fill="#FFFFFF" x="0" y="0" width="14" height="14"></rect>
                            <path d="M1.33752104,3.96252104 C1.54001512,3.76002697 1.85434359,3.73752763 2.08168975,3.89502302 L2.16247896,3.96252104 L7,8.8 L11.837521,3.96252104 C12.0400151,3.76002697 12.3543436,3.73752763 12.5816898,3.89502302 L12.662479,3.96252104 C12.864973,4.16501512 12.8874724,4.47934359 12.729977,4.70668975 L12.662479,4.78747896 L7.41247896,10.037479 C7.20998488,10.239973 6.89565641,10.2624724 6.66831025,10.104977 L6.58752104,10.037479 L1.33752104,4.78747896 C1.10971521,4.55967312 1.10971521,4.19032688 1.33752104,3.96252104 Z" id="路径" fill="#B1B6C3"></path>
                        </g>
                        <g id="图标/14px/向下" transform="translate(186, 13)">
                            <rect id="矩形" fill-opacity="0" fill="#FFFFFF" x="0" y="0" width="14" height="14"></rect>
                            <path d="M1.33752104,3.96252104 C1.54001512,3.76002697 1.85434359,3.73752763 2.08168975,3.89502302 L2.16247896,3.96252104 L7,8.8 L11.837521,3.96252104 C12.0400151,3.76002697 12.3543436,3.73752763 12.5816898,3.89502302 L12.662479,3.96252104 C12.864973,4.16501512 12.8874724,4.47934359 12.729977,4.70668975 L12.662479,4.78747896 L7.41247896,10.037479 C7.20998488,10.239973 6.89565641,10.2624724 6.66831025,10.104977 L6.58752104,10.037479 L1.33752104,4.78747896 C1.10971521,4.55967312 1.10971521,4.19032688 1.33752104,3.96252104 Z" id="路径" fill="#B1B6C3"></path>
                        </g>
                    </g>
                </g>
            </g>
        </g>
    </g>
</svg>