<?xml version="1.0" encoding="UTF-8"?>
<svg width="14px" height="14px" viewBox="0 0 14 14" version="1.1" xmlns="http://www.w3.org/2000/svg" xmlns:xlink="http://www.w3.org/1999/xlink">
    <title>14px/线性/通用/向上</title>
    <g id="云平台-场景管理1.1" stroke="none" stroke-width="1" fill="none" fill-rule="evenodd">
        <g id="场景管理-我的场景-具体场景-进入某一场景集" transform="translate(-194, -337)">
            <rect fill="#F2F3F5" x="0" y="0" width="1888" height="1060"></rect>
            <g id="侧边导航备份" transform="translate(0, 60)">
                <rect id="矩形" fill="transparent" x="0" y="0" width="232" height="1787"></rect>
                <g id="侧边导航/亮色-二级菜单-收起" transform="translate(8, 120)">
                    <rect id="矩形" fill-opacity="0.08" fill="transparent" x="0" y="0" width="216" height="40" rx="2"></rect>
                    <g id="Group" transform="translate(17, 12)">
                        <polygon id="路径" points="0 0 16 0 16 16 0 16"></polygon>
                        <polygon id="Rectangle" stroke="#60656E" stroke-width="1.5" points="2.5 2 13.5 2 13.5 14.5 2.5 14.5"></polygon>
                        <rect id="Rectangle" fill="#60656E" x="5" y="5" width="6" height="1.5"></rect>
                        <rect id="Rectangle" fill="#60656E" x="5" y="8" width="6" height="1.5"></rect>
                    </g>
                    <text id="导航类三" font-family="PingFangSC-Regular, PingFang SC" font-size="14" font-weight="normal" line-spacing="22" fill="#1E2229">
                        <tspan x="42" y="24">仿真管理</tspan>
                    </text>
                    <g id="Group" transform="translate(186, 13)">
                        <rect id="矩形" fill-opacity="0" fill="transparent" x="0" y="0" width="14" height="14"></rect>
                        <path d="M11.837521,3.96252104 C12.0653269,3.73471521 12.4346731,3.73471521 12.662479,3.96252104 C12.8675042,4.1675463 12.8880067,4.48721928 12.7239865,4.71517407 L12.662479,4.78747896 L7.41247896,10.037479 C7.2074537,10.2425042 6.88778072,10.2630067 6.65982593,10.0989865 L6.58752104,10.037479 L1.33752104,4.78747896 C1.10971521,4.55967312 1.10971521,4.19032688 1.33752104,3.96252104 C1.5425463,3.75749579 1.86221928,3.73699327 2.09017407,3.90101347 L2.16247896,3.96252104 L7,8.799875 L11.837521,3.96252104 Z" id="路径" fill="#B1B6C3" transform="translate(7, 7) scale(1, -1) translate(-7, -7)"></path>
                    </g>
                </g>
                <g id="侧边导航/亮色-二级菜单-收起" transform="translate(8, 72)">
                    <rect id="矩形" fill-opacity="0.08" fill="transparent" x="0" y="0" width="216" height="40" rx="2"></rect>
                    <g id="图标/16px/侧边导航-收起" transform="translate(17, 12)">
                        <g id="Group">
                            <polygon id="路径" points="0 0 16 0 16 16 0 16"></polygon>
                            <path d="M13.25,1.75 L13.25,14.25 L2.75,14.25 L2.75,1.75 L13.25,1.75 Z" id="Rectangle" stroke="#60656E" stroke-width="1.5" transform="translate(8, 8) rotate(-270) translate(-8, -8)"></path>
                            <polyline id="Path" stroke="#60656E" stroke-width="1.5" points="4 8 5.5 8 7 6 9 9 10 8 12 8"></polyline>
                        </g>
                        <g id="Group" transform="translate(1, 1)"></g>
                    </g>
                    <text id="导航类三" font-family="PingFangSC-Regular, PingFang SC" font-size="14" font-weight="normal" line-spacing="22" fill="#1E2229">
                        <tspan x="42" y="24">在线仿真</tspan>
                    </text>
                </g>
                <g id="场景管理" transform="translate(8, 264)">
                    <g id="侧边导航/亮色-二级菜单-收起">
                        <rect id="矩形" fill-opacity="0.08" fill="transparent" x="0" y="0" width="216" height="40" rx="2"></rect>
                        <g id="Group" transform="translate(17, 12)">
                            <polygon id="路径" points="0 0 16 0 16 16 0 16"></polygon>
                            <polygon id="Polygon" stroke="#00AF59" stroke-width="1.5" points="8 1 14.0621778 4.5 14.0621778 11.5 8 15 1.93782217 11.5 1.93782217 4.5"></polygon>
                            <path d="M8.8,4 L8.799949,7.801 L11.6570506,9.450481 L10.9070506,10.7495191 L8.049949,9.100481 L5.192949,10.7495191 L4.442949,9.450481 L7.299949,7.8 L7.3,4 L8.8,4 Z" id="Combined-Shape" fill="#00AF59"></path>
                        </g>
                        <text id="导航类三" font-family="PingFangSC-Regular, PingFang SC" font-size="14" font-weight="normal" line-spacing="22" fill="#00AF59">
                            <tspan x="42" y="24">场景管理</tspan>
                        </text>
                        <g id="图标/14px/向下" transform="translate(186, 13)">
                            <rect id="矩形" fill-opacity="0" fill="transparent" x="0" y="0" width="14" height="14"></rect>
                            <path d="M1.33752104,3.96252104 C1.54001512,3.76002697 1.85434359,3.73752763 2.08168975,3.89502302 L2.16247896,3.96252104 L7,8.8 L11.837521,3.96252104 C12.0400151,3.76002697 12.3543436,3.73752763 12.5816898,3.89502302 L12.662479,3.96252104 C12.864973,4.16501512 12.8874724,4.47934359 12.729977,4.70668975 L12.662479,4.78747896 L7.41247896,10.037479 C7.20998488,10.239973 6.89565641,10.2624724 6.66831025,10.104977 L6.58752104,10.037479 L1.33752104,4.78747896 C1.10971521,4.55967312 1.10971521,4.19032688 1.33752104,3.96252104 Z" id="路径" fill="#B1B6C3" transform="translate(7, 7) scale(1, -1) translate(-7, -7)"></path>
                        </g>
                    </g>
                    <g id="侧边导航/亮色-一级菜单-未选中" transform="translate(0, 48)">
                        <rect id="矩形" fill-opacity="0.08" fill="transparent" x="0" y="0" width="216" height="40" rx="2"></rect>
                        <text id="项目选项1" font-family="PingFangSC-Regular, PingFang SC" font-size="14" font-weight="normal" line-spacing="22" fill="#1E2229">
                            <tspan x="42" y="24">场景生成</tspan>
                        </text>
                    </g>
                    <g id="侧边导航/亮色-一级菜单-未选中" transform="translate(0, 96)">
                        <rect id="矩形" fill-opacity="0.08" fill="transparent" x="0" y="0" width="216" height="40" rx="2"></rect>
                        <text id="项目选项1" font-family="PingFangSC-Regular, PingFang SC" font-size="14" font-weight="normal" line-spacing="22" fill="#1E2229">
                            <tspan x="42" y="24">场景资源库</tspan>
                        </text>
                    </g>
                    <g id="我的场景" transform="translate(0, 144)">
                        <g id="侧边导航/亮色-一级菜单-未选中">
                            <rect id="矩形" fill-opacity="0.08" fill="transparent" x="0" y="0" width="216" height="40" rx="2"></rect>
                            <text id="项目选项1" font-family="PingFangSC-Regular, PingFang SC" font-size="14" font-weight="normal" line-spacing="22" fill="#1E2229">
                                <tspan x="42" y="24">我的场景</tspan>
                            </text>
                            <g id="Group" transform="translate(193, 20) scale(1, -1) translate(-193, -20)translate(186, 13)">
                                <rect id="矩形" fill-opacity="0" fill="transparent" x="0" y="0" width="14" height="14"></rect>
                                <path d="M1.33752104,3.96252104 C1.54001512,3.76002697 1.85434359,3.73752763 2.08168975,3.89502302 L2.16247896,3.96252104 L7,8.8 L11.837521,3.96252104 C12.0400151,3.76002697 12.3543436,3.73752763 12.5816898,3.89502302 L12.662479,3.96252104 C12.864973,4.16501512 12.8874724,4.47934359 12.729977,4.70668975 L12.662479,4.78747896 L7.41247896,10.037479 C7.20998488,10.239973 6.89565641,10.2624724 6.66831025,10.104977 L6.58752104,10.037479 L1.33752104,4.78747896 C1.10971521,4.55967312 1.10971521,4.19032688 1.33752104,3.96252104 Z" id="路径" fill="#B1B6C3"></path>
                            </g>
                        </g>
                        <g id="侧边导航/亮色-一级菜单-未选中" transform="translate(0, 48)">
                            <rect id="矩形" fill="#9BE9AA" opacity="0.2" x="0" y="0" width="216" height="40" rx="2"></rect>
                            <text id="项目选项1" font-family="PingFangSC-Medium, PingFang SC" font-size="14" font-weight="400" line-spacing="22" fill="#00AF59">
                                <tspan x="50" y="24">具体场景</tspan>
                            </text>
                        </g>
                        <g id="侧边导航/亮色-一级菜单-未选中" transform="translate(0, 96)">
                            <rect id="矩形" fill-opacity="0.08" fill="transparent" x="0" y="0" width="216" height="40" rx="2"></rect>
                            <text id="项目选项1" font-family="PingFangSC-Regular, PingFang SC" font-size="14" font-weight="normal" line-spacing="22" fill="#1E2229">
                                <tspan x="50" y="24">逻辑场景</tspan>
                            </text>
                        </g>
                    </g>
                </g>
                <g id="侧边导航/亮色-一级菜单-未选中" transform="translate(8, 168)">
                    <rect id="矩形" fill-opacity="0.08" fill="transparent" x="0" y="0" width="216" height="40" rx="2"></rect>
                    <text id="项目选项1" font-family="PingFangSC-Regular, PingFang SC" font-size="14" font-weight="normal" line-spacing="22" fill="#1E2229">
                        <tspan x="42" y="24">仿真任务</tspan>
                    </text>
                </g>
                <g id="Group-7" transform="translate(8, 552)">
                    <g id="侧边导航/亮色-二级菜单-收起">
                        <rect id="矩形" fill-opacity="0.08" fill="transparent" x="0" y="0" width="216" height="40" rx="2"></rect>
                        <g id="Group" transform="translate(17, 12)">
                            <polygon id="路径" points="0 0 16 0 16 16 0 16"></polygon>
                            <path d="M14.2788619,10.528724 L15.5,11.4138982 L8,15.3096543 L0.5,11.4138982 L1.790928,10.5851528 L8,13.6913863 L14.2788619,10.528724 Z M14.2788619,7.169653 L15.5,8.05482725 L8,11.9505833 L0.5,8.05482725 L1.790928,7.2260818 L8,10.3323153 L14.2788619,7.169653 Z M8,0.8 L15.5,4.69575604 L8,8.59151208 L0.5,4.69575604 L8,0.8 Z M8,2.41098278 L3.6008493,4.6954682 L8,6.97995363 L12.3991507,4.6954682 L8,2.41098278 Z" id="Combined-Shape" fill="#60656E" fill-rule="nonzero"></path>
                        </g>
                        <text id="导航类三" font-family="PingFangSC-Regular, PingFang SC" font-size="14" font-weight="normal" line-spacing="22" fill="#1E2229">
                            <tspan x="42" y="24">地图管理</tspan>
                        </text>
                    </g>
                    <g id="Group" transform="translate(186, 13)">
                        <rect id="矩形" fill-opacity="0" fill="transparent" x="0" y="0" width="14" height="14"></rect>
                        <path d="M1.33752104,3.96252104 C1.54001512,3.76002697 1.85434359,3.73752763 2.08168975,3.89502302 L2.16247896,3.96252104 L7,8.8 L11.837521,3.96252104 C12.0400151,3.76002697 12.3543436,3.73752763 12.5816898,3.89502302 L12.662479,3.96252104 C12.864973,4.16501512 12.8874724,4.47934359 12.729977,4.70668975 L12.662479,4.78747896 L7.41247896,10.037479 C7.20998488,10.239973 6.89565641,10.2624724 6.66831025,10.104977 L6.58752104,10.037479 L1.33752104,4.78747896 C1.10971521,4.55967312 1.10971521,4.19032688 1.33752104,3.96252104 Z" id="路径" fill="#B1B6C3"></path>
                    </g>
                    <g id="侧边导航/亮色-二级菜单-收起" transform="translate(0, 48)">
                        <rect id="矩形" fill-opacity="0.08" fill="transparent" x="0" y="0" width="216" height="40" rx="2"></rect>
                        <g id="Group" transform="translate(17, 12)">
                            <polygon id="路径" points="0 0 16 0 16 16 0 16"></polygon>
                            <g id="Group-2" transform="translate(1.591, 1.9)" stroke="#60656E" stroke-width="1.5">
                                <circle id="Oval" cx="6.978882" cy="2.5" r="2.5"></circle>
                                <path d="M7.0812315,10.4813525 C7.50777976,11.7941331 8.91778438,12.5125663 10.230565,12.086018 C11.5433455,11.6594698 12.2617788,10.2494651 11.8352305,8.93668457 C11.4086822,7.62390399 9.99867762,6.90547076 8.68589704,7.33201902 C7.37311647,7.75856729 6.65468323,9.16857191 7.0812315,10.4813525 Z" id="Oval"></path>
                                <circle id="Oval" transform="translate(2.5201, 7.8395) rotate(288) translate(-2.5201, -7.8395)" cx="2.52014702" cy="7.83946002" r="2"></circle>
                                <line x1="7.63045046" y1="4.24196543" x2="8.92904108" y2="7.83946028" id="Path-12"></line>
                                <line x1="7.409017" y1="9.1" x2="3.909017" y2="8.1" id="Path-14"></line>
                            </g>
                        </g>
                        <text id="导航类三" font-family="PingFangSC-Regular, PingFang SC" font-size="14" font-weight="normal" line-spacing="22" fill="#1E2229">
                            <tspan x="42" y="24">算法管理</tspan>
                        </text>
                    </g>
                    <g id="侧边导航/亮色-二级菜单-收起" transform="translate(0, 96)">
                        <rect id="矩形" fill-opacity="0.08" fill="transparent" x="0" y="0" width="216" height="40" rx="2"></rect>
                        <g id="Group" transform="translate(17, 12)">
                            <polygon id="路径" points="0 0 16 0 16 16 0 16"></polygon>
                            <polygon id="Polygon" stroke="#60656E" stroke-width="1.5" points="8 1 14.0621778 4.5 14.0621778 11.5 8 15 1.93782217 11.5 1.93782217 4.5"></polygon>
                            <circle id="Oval" stroke="#60656E" stroke-width="1.5" cx="8" cy="8" r="2"></circle>
                        </g>
                        <text id="导航类三" font-family="PingFangSC-Regular, PingFang SC" font-size="14" font-weight="normal" line-spacing="22" fill="#1E2229">
                            <tspan x="42" y="24">模型管理</tspan>
                        </text>
                    </g>
                    <g id="侧边导航/亮色-二级菜单-收起" transform="translate(0, 144)">
                        <rect id="矩形" fill-opacity="0.08" fill="transparent" x="0" y="0" width="216" height="40" rx="2"></rect>
                        <g id="Group" transform="translate(17, 12)">
                            <polygon id="路径" points="0 0 16 0 16 16 0 16"></polygon>
                            <rect id="Rectangle" stroke="#60656E" stroke-width="1.5" x="1.8" y="1.7" width="12.5" height="12.5"></rect>
                            <path d="M6.5,4.3 C7.11518024,4.3 7.64386519,4.67033032 7.8752823,5.20021841 L12,5.2 L12,6.7 L7.69945779,6.70086746 C7.42575614,7.06470804 6.99035576,7.3 6.5,7.3 C6.00964424,7.3 5.57424386,7.06470804 5.30054221,6.70086746 L4,6.7 L4,5.2 L5.1247177,5.20021841 C5.35613481,4.67033032 5.88481976,4.3 6.5,4.3 Z M9.5,8.4 C8.88481976,8.4 8.35613481,8.77033032 8.1247177,9.30021841 L4,9.3 L4,10.8 L8.30054221,10.8008675 C8.57424386,11.164708 9.00964424,11.4 9.5,11.4 C9.99035576,11.4 10.4257561,11.164708 10.6994578,10.8008675 L12,10.8 L12,9.3 L10.8752823,9.30021841 C10.6438652,8.77033032 10.1151802,8.4 9.5,8.4 Z" id="Combined-Shape" fill="#60656E"></path>
                        </g>
                        <text id="导航类三" font-family="PingFangSC-Regular, PingFang SC" font-size="14" font-weight="normal" line-spacing="22" fill="#1E2229">
                            <tspan x="42" y="24">标签管理</tspan>
                        </text>
                    </g>
                    <g id="侧边导航/亮色-二级菜单-收起" transform="translate(0, 192)">
                        <rect id="矩形" fill-opacity="0.08" fill="transparent" x="0" y="0" width="216" height="40" rx="2"></rect>
                        <g id="图标/16px/侧边导航-收起" transform="translate(17, 12)">
                            <g id="Group">
                                <polygon id="路径" points="0 0 16 0 16 16 0 16"></polygon>
                                <g id="Group-2" transform="translate(2, 2)" stroke="#60656E" stroke-width="1.5">
                                    <g id="Group-3">
                                        <rect id="Rectangle" x="0" y="3" width="9" height="9"></rect>
                                        <polyline id="Path-10" points="2.5 7.5 4 9 7 6"></polyline>
                                        <polyline id="Path" points="1 0 6 0 12 0 12 6 12 11"></polyline>
                                    </g>
                                </g>
                            </g>
                            <g id="Group" transform="translate(1, 1)"></g>
                        </g>
                        <text id="导航类三" font-family="PingFangSC-Regular, PingFang SC" font-size="14" font-weight="normal" line-spacing="22" fill="#1E2229">
                            <tspan x="42" y="24">评价指标管理</tspan>
                        </text>
                    </g>
                    <g id="侧边导航/亮色-二级菜单-收起" transform="translate(0, 240)">
                        <rect id="矩形" fill-opacity="0.08" fill="transparent" x="0" y="0" width="216" height="40" rx="2"></rect>
                        <g id="Group" transform="translate(17, 12)">
                            <polygon id="路径" points="0 0 16 0 16 16 0 16"></polygon>
                            <g id="Group-2" transform="translate(2.5, 2)" stroke="#60656E" stroke-width="1.5">
                                <path d="M0,0 L11,0 L11,5.69450364 C11,8.10265989 9.56020386,10.2774893 7.34329908,11.2179943 L5.5,12 L5.5,12 L3.65670092,11.2179943 C1.43979614,10.2774893 2.07127092e-15,8.10265989 1.77635684e-15,5.69450364 L0,0 L0,0 Z" id="Rectangle"></path>
                                <polyline id="Path-3" points="5.2 2.3 4.2 4.8 6.7 4.8 5.2 8.3"></polyline>
                            </g>
                        </g>
                        <text id="导航类三" font-family="PingFangSC-Regular, PingFang SC" font-size="14" font-weight="normal" line-spacing="22" fill="#1E2229">
                            <tspan x="42" y="24">SOTIF分析</tspan>
                        </text>
                    </g>
                </g>
                <g id="侧边导航/亮色-一级菜单-未选中" transform="translate(8, 216)">
                    <rect id="矩形" fill-opacity="0.08" fill="transparent" x="0" y="0" width="216" height="40" rx="2"></rect>
                    <text id="项目选项1" font-family="PingFangSC-Regular, PingFang SC" font-size="14" font-weight="normal" line-spacing="22" fill="#1E2229">
                        <tspan x="42" y="24">仿真结果</tspan>
                    </text>
                </g>
                <g id="侧边导航/亮色-一级菜单-选中" transform="translate(8, 24)">
                    <rect id="矩形" fill-opacity="0.08" fill="transparent" x="0" y="0" width="216" height="40" rx="2"></rect>
                    <g id="Group" transform="translate(17, 12)">
                        <polygon id="路径" points="0 0 16 0 16 16 0 16"></polygon>
                        <path d="M7.3,1.8 L7.3,7.3 L1.8,7.3 L1.8,1.8 L7.3,1.8 Z M5.8,3.3 L3.3,3.3 L3.3,5.8 L5.8,5.8 L5.8,3.3 Z M7.3,8.8 L7.3,14.3 L1.8,14.3 L1.8,8.8 L7.3,8.8 Z M5.8,10.3 L3.3,10.3 L3.3,12.8 L5.8,12.8 L5.8,10.3 Z M14.3,1.8 L14.3,7.3 L8.8,7.3 L8.8,1.8 L14.3,1.8 Z M12.8,3.3 L10.3,3.3 L10.3,5.8 L12.8,5.8 L12.8,3.3 Z M14.3,8.8 L14.3,14.3 L8.8,14.3 L8.8,8.8 L14.3,8.8 Z M12.8,10.3 L10.3,10.3 L10.3,12.8 L12.8,12.8 L12.8,10.3 Z" id="Combined-Shape" fill="#60656E" fill-rule="nonzero"></path>
                    </g>
                    <text id="总览" font-family="PingFangSC-Regular, PingFang SC" font-size="14" font-weight="normal" line-spacing="22" fill="#1E2229">
                        <tspan x="42" y="24">总览</tspan>
                    </text>
                </g>
            </g>
            <g id="侧边导航备份" transform="translate(0, 60)">
                <rect id="矩形" fill="transparent" x="0" y="0" width="232" height="1787"></rect>
                <g id="侧边导航/亮色-二级菜单-收起" transform="translate(8, 264)">
                    <rect id="矩形" fill-opacity="0.08" fill="transparent" x="0" y="0" width="216" height="40" rx="2"></rect>
                    <g id="图标/14px/向下" transform="translate(186, 13)">
                        <rect id="矩形" fill-opacity="0" fill="transparent" x="0" y="0" width="14" height="14"></rect>
                        <path d="M1.33752104,3.96252104 C1.54001512,3.76002697 1.85434359,3.73752763 2.08168975,3.89502302 L2.16247896,3.96252104 L7,8.8 L11.837521,3.96252104 C12.0400151,3.76002697 12.3543436,3.73752763 12.5816898,3.89502302 L12.662479,3.96252104 C12.864973,4.16501512 12.8874724,4.47934359 12.729977,4.70668975 L12.662479,4.78747896 L7.41247896,10.037479 C7.20998488,10.239973 6.89565641,10.2624724 6.66831025,10.104977 L6.58752104,10.037479 L1.33752104,4.78747896 C1.10971521,4.55967312 1.10971521,4.19032688 1.33752104,3.96252104 Z" id="路径" fill="#B1B6C3" transform="translate(7, 7) scale(1, -1) translate(-7, -7)"></path>
                    </g>
                </g>
            </g>
        </g>
    </g>
</svg>