<?xml version="1.0" encoding="UTF-8"?>
<svg width="16px" height="16px" viewBox="0 0 16 16" version="1.1" xmlns="http://www.w3.org/2000/svg" xmlns:xlink="http://www.w3.org/1999/xlink">
    <title>icon_doubleleft16</title>
    <g id="云平台-个人中心" stroke="none" stroke-width="1" fill="none" fill-rule="evenodd">
        <g id="管理端-系统管理-企业管理" transform="translate(-947, -198)">
            <g id="4.数据录入/日期选择框/选择-年月日区间2" transform="translate(935, 182)">
                <g id="Group" transform="translate(12, 16)">
                    <rect id="矩形" fill-opacity="0" fill="#FFFFFF" x="0" y="0" width="16" height="16"></rect>
                    <path d="M9.13807119,1.52859548 C9.38471811,1.7752424 9.39769953,2.16707045 9.17701544,2.4289996 L9.13807119,2.47140452 L3.60966667,8 L9.13807119,13.5285955 C9.38471811,13.7752424 9.39769953,14.1670705 9.17701544,14.4289996 L9.13807119,14.4714045 C8.89142427,14.7180514 8.49959621,14.7310329 8.23766707,14.5103488 L8.19526215,14.4714045 L2.19526215,8.47140452 C1.94861522,8.2247576 1.93563381,7.83292955 2.1563179,7.5710004 L2.19526215,7.52859548 L8.19526215,1.52859548 C8.45561167,1.26824595 8.87772166,1.26824595 9.13807119,1.52859548 Z M13.8047379,1.52859548 C14.0513848,1.7752424 14.0643662,2.16707045 13.8436821,2.4289996 L13.8047379,2.47140452 L8.27633333,8 L13.8047379,13.5285955 C14.0513848,13.7752424 14.0643662,14.1670705 13.8436821,14.4289996 L13.8047379,14.4714045 C13.5580909,14.7180514 13.1662629,14.7310329 12.9043337,14.5103488 L12.8619288,14.4714045 L6.86192881,8.47140452 C6.61528189,8.2247576 6.60230047,7.83292955 6.82298456,7.5710004 L6.86192881,7.52859548 L12.8619288,1.52859548 C13.1222783,1.26824595 13.5443883,1.26824595 13.8047379,1.52859548 Z" id="形状结合" fill-opacity="0.6" fill="#171F26"></path>
                </g>
            </g>
        </g>
    </g>
</svg>