<?xml version="1.0" encoding="UTF-8"?>
<svg width="14px" height="14px" viewBox="0 0 14 14" version="1.1" xmlns="http://www.w3.org/2000/svg" xmlns:xlink="http://www.w3.org/1999/xlink">
    <title>icon_delete14_n</title>
    <g id="云平台-场景管理1.1" stroke="none" stroke-width="1" fill="none" fill-rule="evenodd">
        <g id="场景管理-icon" transform="translate(-259, -118)">
            <rect fill="transparent" x="0" y="0" width="354" height="362"></rect>
            <g id="Group" transform="translate(259, 118)">
                <rect id="矩形" fill-opacity="0" fill="#FFFFFF" x="0" y="0" width="14" height="14"></rect>
                <path d="M2.70870798,1.88677816 L2.74581229,1.92085438 L7,6.174875 L11.2541877,1.92085438 C11.4819935,1.69304854 11.8513398,1.69304854 12.0791456,1.92085438 C12.2949617,2.13667043 12.3063204,2.47951998 12.1132218,2.70870798 L12.0791456,2.74581229 L7.825125,7 L12.0791456,11.2541877 C12.3069515,11.4819935 12.3069515,11.8513398 12.0791456,12.0791456 C11.8633296,12.2949617 11.52048,12.3063204 11.291292,12.1132218 L11.2541877,12.0791456 L7,7.825125 L2.74581229,12.0791456 C2.51800645,12.3069515 2.14866021,12.3069515 1.92085438,12.0791456 C1.70503832,11.8633296 1.69367958,11.52048 1.88677816,11.291292 L1.92085438,11.2541877 L6.174875,7 L1.92085438,2.74581229 C1.69304854,2.51800645 1.69304854,2.14866021 1.92085438,1.92085438 C2.12468065,1.7170281 2.44181766,1.69557271 2.66949883,1.85648819 L2.70870798,1.88677816 Z" id="形状" fill="#999CA3"></path>
            </g>
        </g>
    </g>
</svg>