<?xml version="1.0" encoding="UTF-8"?>
<svg width="16px" height="16px" viewBox="0 0 16 16" version="1.1" xmlns="http://www.w3.org/2000/svg" xmlns:xlink="http://www.w3.org/1999/xlink">
    <title>8.图标/16px/关闭</title>
    <g id="8.图标/16px/关闭" stroke="none" stroke-width="1" fill="none" fill-rule="evenodd">
        <g id="Group">
            <rect id="矩形" fill-opacity="0" fill="#FFFFFF" x="0" y="0" width="16" height="16"></rect>
            <path d="M3.09566626,2.1563179 L3.13807119,2.19526215 L8,7.057 L12.8619288,2.19526215 C13.1222783,1.93491262 13.5443883,1.93491262 13.8047379,2.19526215 C14.0513848,2.44190907 14.0643662,2.83373712 13.8436821,3.09566626 L13.8047379,3.13807119 L8.943,8 L13.8047379,12.8619288 C14.0650874,13.1222783 14.0650874,13.5443883 13.8047379,13.8047379 C13.5580909,14.0513848 13.1662629,14.0643662 12.9043337,13.8436821 L12.8619288,13.8047379 L8,8.943 L3.13807119,13.8047379 C2.87772166,14.0650874 2.45561167,14.0650874 2.19526215,13.8047379 C1.94861522,13.5580909 1.93563381,13.1662629 2.1563179,12.9043337 L2.19526215,12.8619288 L7.057,8 L2.19526215,3.13807119 C1.93491262,2.87772166 1.93491262,2.45561167 2.19526215,2.19526215 C2.42820646,1.96231783 2.79064876,1.93779738 3.05085581,2.12170078 L3.09566626,2.1563179 Z" id="形状" fill="#60656E"></path>
        </g>
    </g>
</svg>