<?xml version="1.0" encoding="UTF-8"?>
<svg width="18px" height="18px" viewBox="0 0 18 18" version="1.1" xmlns="http://www.w3.org/2000/svg" xmlns:xlink="http://www.w3.org/1999/xlink">
    <title>icon_fold_n</title>
    <g id="首页" stroke="none" stroke-width="1" fill="none" fill-rule="evenodd">
        <g id="云仿真-首页-默认" transform="translate(-24, -1468)">
            <g id="左侧导航栏" transform="translate(0, 60)">
                <g id="Group" transform="translate(0, 1397)">
                    <g id="Group" transform="translate(24, 11)">
                        <rect id="矩形" fill-opacity="0" fill="#FFFFFF" x="0" y="0" width="18" height="18"></rect>
                        <g id="编组" transform="translate(2.25, 3.1875)" fill="#60656E">
                            <path d="M12.75,0 C13.1642136,0 13.5,0.335786438 13.5,0.75 C13.5,1.14538567 13.1940458,1.46931192 12.8059734,1.49794285 L12.75,1.5 L0.75,1.5 C0.335786438,1.5 0,1.16421356 0,0.75 C0,0.354614327 0.305954171,0.0306880793 0.694026621,0.00205715116 L0.75,0 L12.75,0 Z M3.4016254,2.97329023 C3.67910564,3.25076556 3.69371363,3.69157199 3.44544663,3.98624447 L3.40163477,4.0339504 L2.56,4.875 L12.75,4.875 C13.1642136,4.875 13.5,5.21078644 13.5,5.625 C13.5,6.02038567 13.1940458,6.34431192 12.8059734,6.37294285 L12.75,6.375 L2.56,6.375 L3.40163477,7.2159746 C3.67911011,7.49345484 3.6937103,7.93426153 3.4454381,8.22892962 L3.4016254,8.27663477 C3.12414516,8.55411011 2.68333847,8.5687103 2.38867038,8.3204381 L2.34096523,8.2766254 L0.219665227,6.1552879 L0.156271921,6.08330264 C0.154067469,6.08045098 0.151883104,6.077583 0.149719039,6.07469892 L0.219665227,6.1552879 C0.184981243,6.1206033 0.154404574,6.08336678 0.127935219,6.04418274 C0.115591339,6.02583431 0.103898002,6.00674901 0.0930582942,5.98712632 C0.0859276164,5.97428138 0.0792617025,5.96130782 0.0729987833,5.94818992 C0.064092085,5.92955794 0.0557845688,5.91015305 0.0482914504,5.89034799 C0.0432581587,5.87691739 0.0386431629,5.86354005 0.0344173129,5.85006701 C0.0281770694,5.8303999 0.0227860374,5.81038262 0.0182204663,5.79005319 C0.0150689091,5.77568321 0.0122707193,5.761251 0.00989879527,5.74676257 C0.00680224199,5.72823962 0.00442262153,5.70918579 0.00277102421,5.68992404 C0.00124544841,5.67181629 0.000350485633,5.65403725 8.44215229e-05,5.63625054 C2.76594335e-05,5.63251227 0,5.62875936 0,5.625 L0.000944497157,5.58721762 C0.00181418878,5.56985171 0.0032844885,5.55251027 0.00535539631,5.5352271 L0,5.625 C0,5.56861702 0.00622172241,5.51368719 0.018016068,5.46085963 C0.0200346073,5.45205298 0.0222850093,5.44277544 0.0247145343,5.43353523 C0.0526975096,5.32716289 0.10336774,5.23021373 0.171227203,5.14797439 L0.219665227,5.0946371 L2.34096523,2.9732996 C2.63385586,2.68040379 3.10872959,2.6803996 3.4016254,2.97329023 Z M12.75,9.75 C13.1642136,9.75 13.5,10.0857864 13.5,10.5 C13.5,10.8953857 13.1940458,11.2193119 12.8059734,11.2479428 L12.75,11.25 L0.75,11.25 C0.335786438,11.25 0,10.9142136 0,10.5 C0,10.1046143 0.305954171,9.78068808 0.694026621,9.75205715 L0.75,9.75 L12.75,9.75 Z" id="形状结合"></path>
                        </g>
                    </g>
                </g>
            </g>
        </g>
    </g>
</svg>