<svg xmlns="http://www.w3.org/2000/svg" xmlns:xlink="http://www.w3.org/1999/xlink" width="24px" height="24px" viewBox="0 0 24 24" version="1.1">
    <title>编辑</title>
    <g id="用例库弹窗" stroke="none" stroke-width="1" fill="none" fill-rule="evenodd">
        <g id="图标" transform="translate(-330, -339)" fill="currentcolor" fill-rule="nonzero">
            <g id="编辑-n" transform="translate(330, 339)">
                <g id="编组" transform="translate(7.5, 5.25)">
                    <path d="M7.67722061,1.03538335 L8.57073006,1.94263839 C8.6542356,2.02742863 8.70155568,2.1418953 8.70155568,2.26484115 C8.70155568,2.387787 8.65562736,2.50225465 8.57073006,2.58704489 L8.09085129,3.07882821 L6.56130869,1.52716667 L7.04118746,1.03538335 C7.12608476,0.950593106 7.23881715,0.902545228 7.35990018,0.902545228 C7.48098322,0.902545228 7.59371507,0.949179936 7.67722061,1.03538335 Z M7.55585958,0 C7.26219843,0 6.96853729,0.113053654 6.74585585,0.339160961 L5.48074692,1.6237331 L7.99426367,4.17591933 L9.25937259,2.89134719 C9.70473547,2.43913258 9.70473547,1.69863115 9.25937259,1.24641653 L8.36447156,0.340574132 C8.14179012,0.113053654 7.84952073,0 7.55585958,0 Z" id="形状"/>
                    <path d="M7.32232198,3.57767686 L3.20494288,7.75830699 L1.3302428,8.39187873 L1.96098842,6.3969525 L5.98317192,2.31288948 L7.32232198,3.57767686 Z M1.35696502,5.81519731 L0,9.73391959 L3.87744056,8.37303623 L8.5022557,3.67707009 L5.98317192,1.117818 L1.35696502,5.81519731 Z" id="形状"/>
                    <polygon id="路径" points="0.011134072 10.9845756 9.59339475 10.9845756 9.59339475 11.964374 0.011134072 11.964374"/>
                </g>
            </g>
        </g>
    </g>
</svg>