<?xml version="1.0" encoding="UTF-8"?>
<svg width="307px" height="36px" viewBox="0 0 307 36" version="1.1" xmlns="http://www.w3.org/2000/svg" xmlns:xlink="http://www.w3.org/1999/xlink">
    <title>icon/navlogo/home</title>
    <g id="icon/navlogo/home" stroke="none" stroke-width="1" fill="none" fill-rule="evenodd">
        <g id="Group-2" fill="#FFFFFF" fill-rule="nonzero">
            <g id="icon/navlogo/car1" transform="translate(0, 3)">
                <g id="cloudPro" transform="translate(0, 0)">
                    <path d="M96.0227917,18.9475725 C98.1780135,18.9475725 100.144755,20.7603506 99.7544834,22.3106126 C99.364212,23.8608746 97.6132836,25.2928715 94.0029494,25.2928715 L87.1409528,25.2928715 L86.2545659,28.862 L82.3990984,28.862 L84.7112257,18.9475725 L96.0227917,18.9475725 Z M103.878295,21.8117405 L103.459939,23.4765656 L105.784742,21.8363192 L109.05763,21.8363192 L103.618939,25.6637698 C103.231819,25.9362031 102.942738,26.3260769 102.794511,26.7756469 L102.106624,28.862 L100.024574,28.862 L101.670835,21.8363192 L103.878295,21.8117405 Z M117.570766,21.8117405 C118.781279,21.8117405 119.760029,22.4020915 119.294295,24.2641091 C118.828562,26.126127 118.446441,27.0872093 117.979116,27.8708569 C117.511792,28.6545043 116.563452,28.8504797 116.081191,28.8504797 L116.047647,28.8505107 C116.041346,28.8505209 116.034695,28.8505336 116.027702,28.8505488 L115.955693,28.850748 C115.540041,28.8520823 114.436625,28.8580452 113.352844,28.8607083 L113.167378,28.8611311 C113.013202,28.8614538 112.860253,28.8617001 112.710591,28.8618467 L112.508954,28.862 C112.442549,28.862 112.377014,28.862 112.312543,28.862 L112.122516,28.8618321 C111.532095,28.8611075 111.055124,28.8579417 110.857128,28.8504797 C110.169352,28.8245587 109.796434,28.7685162 109.358623,28.4106448 C108.920812,28.0527736 108.749194,27.7422604 108.880248,26.9962922 C108.934854,26.6854723 109.092128,26.1159827 109.269705,25.5239572 L109.323505,25.3459095 C109.558565,24.5734866 109.814018,23.8028845 109.908913,23.5528884 C110.084104,23.0913568 110.385336,22.6646923 110.794907,22.3077445 C111.204477,21.9507968 111.820659,21.8117405 113.010636,21.8117405 L117.570766,21.8117405 Z M52.3380736,21.8117405 C53.5485871,21.8117405 54.5681724,22.4020915 54.2312396,24.2641091 C53.8943066,26.126127 53.5786663,27.0872093 53.1655487,27.8708569 C52.7524311,28.6545043 51.8176475,28.8504797 51.3353858,28.8504797 L51.3018439,28.8505107 C51.2955443,28.8505209 51.2888947,28.8505336 51.281902,28.8505488 L51.2099066,28.850748 C50.7112356,28.8523491 49.2226448,28.8606157 47.9655727,28.8618467 L47.7639454,28.862 L47.5675344,28.862 L47.3774969,28.8618321 C46.7870254,28.8611075 46.3098353,28.8579417 46.1113229,28.8504797 C45.4217539,28.8245587 45.0449596,28.7685162 44.5823937,28.4106448 C44.1198279,28.0527736 43.9267311,27.7422604 44.0061848,26.9962922 C44.0392905,26.6854723 44.157171,26.1159827 44.2937966,25.5239572 L44.3352808,25.3459095 C44.5169096,24.5734866 44.7190586,23.8028845 44.7966607,23.5528884 C44.9399258,23.0913568 45.1323418,22.6179088 45.6059181,22.2523817 C46.0670318,21.8964737 46.561229,21.815895 47.6854023,21.8119004 L52.3380736,21.8117405 Z M66.8061501,21.8117405 C66.0172805,25.1759525 65.5943619,26.9449478 65.5373941,27.1187273 C65.3859116,27.580822 65.106596,28.0080073 64.7153613,28.3653905 C64.3241265,28.7227739 63.7150881,28.862 62.5251107,28.862 L57.9649811,28.862 C56.7544676,28.862 55.7453931,28.2709285 56.115478,26.4066383 C56.2974421,25.4900005 56.9334363,22.9003721 57.0825892,22.4279049 C57.2317419,21.9554379 57.6277212,21.8474453 57.9037498,21.8363123 L59.8669341,21.8284848 L58.8423218,26.0369868 C58.8144867,26.132667 58.8002167,26.2323081 58.7998364,26.3330917 L58.8012775,26.3936766 C58.8324918,27.0020752 59.4610447,27.3197557 60.0694371,27.3197557 L62.2643246,27.3197557 C62.7354454,27.3197557 63.170922,27.2133023 63.3003772,26.7674831 L64.5025663,21.8117405 L66.8061501,21.8117405 Z M80.0857547,18.9475725 L77.772411,28.862 L74.6420561,28.862 L74.8622368,28.2749013 C74.6420561,28.5396009 74.4854517,28.8524308 74.2803326,28.8524308 L71.8860797,28.852491 C71.063281,28.8530239 70.6757356,28.8569787 70.2897661,28.8596175 L70.2038448,28.8601802 C70.0744729,28.8609861 69.9417066,28.8616067 69.7894842,28.8618667 L69.6849437,28.862 L69.6301812,28.862 C68.8323964,28.862 67.6542968,27.7510818 67.9891668,26.6100341 C68.2626439,25.6781788 68.5974034,23.3856497 69.2501766,22.5538457 C69.7723952,21.8884025 70.6902063,21.8127211 71.4418864,21.8090662 L71.5655317,21.8090352 C71.7077656,21.80957 71.8425381,21.8117405 71.9657199,21.8117405 L76.7463486,21.8117405 L77.4759043,18.9475725 L80.0857547,18.9475725 Z M31.4243688,18.9475725 C33.0709306,18.9475725 34.3126118,19.714726 33.8199033,22.1003618 L30.9005432,22.1003605 L31.0046721,21.6467391 C31.0232141,21.5659291 31.0325738,21.483284 31.0325738,21.400374 C31.0325738,20.7919754 30.5393743,20.2987709 29.9309816,20.2987709 L24.5422011,20.2987709 C24.0336381,20.2987709 23.5911745,20.6469145 23.4715286,21.141208 L22.3695074,25.6939939 C22.3489671,25.7788519 22.3385877,25.865851 22.3385877,25.9531599 C22.3385877,26.5615583 22.8317873,27.0547629 23.4401799,27.0547629 L28.8863362,27.0547629 C29.3998137,27.0547629 29.8451912,26.7000018 29.9600264,26.199525 L30.0221335,25.9286514 L32.9421961,25.9287534 C32.845261,26.3870229 32.7547544,26.8069141 32.6388,27.2799625 C32.3075915,28.6311608 30.7817389,28.8563607 30.0995347,28.8563607 L29.9867297,28.8564532 C29.9748199,28.8564682 29.9623001,28.8564849 29.9491832,28.8565032 L29.8153578,28.856711 C29.2183643,28.8577029 27.8978339,28.8605269 26.457794,28.8615891 L26.2167843,28.861818 L26.1562589,28.861818 L24.7590502,28.861818 L24.6621978,28.861818 L24.4697018,28.8616019 C22.9049044,28.8601806 21.5287017,28.8546483 21.1436486,28.8402301 C20.1707253,28.8037992 19.6431984,28.7250339 19.023874,28.2220605 C18.4045496,27.7190871 18.1617803,27.2826738 18.3471687,26.2342462 C18.4284793,25.7744096 18.6127243,24.9175358 18.814878,24.0456317 L18.88828,23.731757 C19.1263439,22.7225448 19.3747766,21.7547913 19.5008622,21.4247696 C19.7486855,20.776106 19.9998275,20.1165993 20.7439704,19.6446858 C21.4881132,19.1727722 22.506653,18.9475725 24.1899868,18.9475725 L31.4243688,18.9475725 Z M39.3446007,18.9359041 L37.5753513,26.7821875 C37.5218205,27.0195863 37.670873,27.2554318 37.9082697,27.3089631 C37.9400795,27.3161361 37.9725872,27.3197557 38.0051957,27.3197557 L41.8605045,27.3197557 L41.4198676,28.862 L35.4712696,28.862 C34.5899958,28.862 34.8103143,27.8705573 35.140792,26.6587939 C35.3611104,25.8509516 35.9486263,23.2805446 36.9033395,18.9475725 L39.3446007,18.9359041 Z M76.4593237,23.1633618 L71.6126944,23.1633618 C70.7506221,23.1633618 70.4225937,25.1324394 70.2122078,26.0515539 C70.0303989,26.8458245 70.5041452,27.3197557 70.861067,27.3197557 L70.8777751,27.3197738 L70.9209432,27.3199133 C71.1848792,27.3210096 71.9777998,27.3275573 72.8044921,27.3311437 L72.9919306,27.3319011 C73.2107857,27.3327172 73.429391,27.3332827 73.638634,27.3334771 L73.8154797,27.3334771 C74.3668843,27.3332484 74.8301309,27.3297067 75.0229922,27.3197557 C75.4222491,27.2991555 75.9010264,25.913691 76.4593237,23.1633618 Z M50.5650721,22.6930229 L48.3271844,22.6930229 C47.8436668,22.6930229 47.4384791,23.0083257 47.3281502,23.4704359 L46.7495336,25.8939626 C46.724459,25.9989879 46.7155749,26.1082609 46.7231763,26.2181527 C46.7652608,26.8265513 47.2925765,27.3197557 47.9009692,27.3197557 L50.1717017,27.3197557 C50.6602817,27.3197557 51.0682264,26.9979352 51.1737761,26.5292361 L51.7195478,24.1057094 C51.7422968,24.0046909 51.7501492,23.8999304 51.742865,23.794626 C51.7007805,23.1862273 51.1734648,22.6930229 50.5650721,22.6930229 Z M115.736804,22.6930229 L113.498916,22.6930229 C113.015398,22.6930229 112.5884,23.0083257 112.446106,23.4704359 L111.699848,25.8939626 C111.667509,25.9989879 111.651066,26.1082609 111.651066,26.2181527 C111.651066,26.8265513 112.144265,27.3197557 112.752658,27.3197557 L115.023391,27.3197557 C115.511971,27.3197557 115.942176,26.9979352 116.080147,26.5292361 L116.79356,24.1057094 C116.823297,24.0046909 116.838396,23.8999304 116.838396,23.794626 C116.838396,23.1862273 116.345196,22.6930229 115.736804,22.6930229 Z M0,25.7775115 L11.4565591,26.3281918 L10.4465692,27.0994351 L0,25.7775115 Z M94.5922834,20.7101374 L88.2119461,20.7101374 L87.4664226,24.0149466 L93.6130856,24.0149466 C94.5990875,24.0149466 95.5649645,23.2462222 95.7903972,22.362542 C96.0158296,21.4788617 95.421253,20.7101374 94.5922834,20.7101374 Z M129.942852,23.2745863 L130,23.3390029 L129.960821,23.3013096 C128.605439,22.0181351 120.674699,16.5961684 82.6194168,15.3394021 C82.6194168,15.3394021 120.888926,13.5015915 129.942852,23.2745863 Z M56.793477,14.074026 L57.5566515,14.1888676 L57.5446814,14.1871241 C55.2973055,13.8606759 32.1788066,10.8375018 6.3892349,20.4898168 C6.3892349,20.4898168 26.2132799,9.61020103 56.793477,14.074026 Z M76.8059738,4.84705343 L98.9229818,14.3208397 L93.5414832,14.3208397 L74.6879528,4.84705343 L76.8059738,4.84705343 Z M75.1285897,3.14277245 C47.6288882,-2.82961338 19.82866,11.0160305 19.82866,11.0160305 C54.2206614,-7.74734673 75.1285897,3.14277245 75.1285897,3.14277245 Z" id="Combined-Shape"></path>
                </g>
            </g>
            <path d="M232.770187,7.448 L250.398187,7.448 L250.12316,10.698 L232.49516,10.698 L232.770187,7.448 Z M241.196301,17.562 C240.233755,19.1046667 239.193942,20.6386667 238.076862,22.164 C236.959783,23.6893333 236.122175,24.6773333 235.564037,25.128 C238.529773,24.9026667 241.508575,24.6253333 244.500444,24.296 C243.508993,22.4933333 242.739404,21.1413333 242.191679,20.24 L245.084092,18.628 C246.672604,21.1586667 248.335646,24.14 250.073217,27.572 L247.202,29.548 C246.967204,29.0453333 246.59621,28.3086667 246.089019,27.338 C240.408747,27.8926667 235.947077,28.2826667 232.704009,28.508 C231.936942,28.56 231.315741,28.6293333 230.840407,28.716 L230.183835,25.414 C230.506103,25.2926667 230.76337,25.1713333 230.955638,25.05 C231.147906,24.9286667 231.383574,24.7553333 231.662642,24.53 L232.194046,24.088 C232.773917,23.5853333 233.541691,22.7056667 234.497369,21.449 C235.453046,20.1923333 236.351357,18.8966667 237.192301,17.562 L229.782301,17.562 L230.057329,14.312 L251.949329,14.312 L251.674301,17.562 L241.196301,17.562 Z M268.940293,18.602 L278.560293,18.602 L278.287465,21.826 L268.667465,21.826 L268.042603,29.21 L264.610603,29.21 L265.235465,21.826 L255.589465,21.826 L255.862293,18.602 L265.508293,18.602 L266.221164,10.178 L258.031164,10.178 L258.303991,6.954 L278.141991,6.954 L277.869164,10.178 L269.653164,10.178 L268.940293,18.602 Z M270.270909,16.704 C270.918915,16.0106667 271.703056,15.04 272.623333,13.792 C273.543611,12.544 274.25782,11.478 274.76596,10.594 L277.281547,12.206 C276.757539,13.0726667 276.03033,14.1386667 275.09992,15.404 C274.169509,16.6693333 273.370901,17.6573333 272.704095,18.368 L270.270909,16.704 Z M260.89916,10.698 C261.493286,11.4606667 262.140978,12.4096667 262.842235,13.545 C263.543492,14.6803333 264.085718,15.6466667 264.468911,16.444 L261.758095,18.368 C261.408101,17.588 260.883943,16.613 260.185619,15.443 C259.487296,14.273 258.850471,13.298 258.275144,12.518 L260.89916,10.698 Z M298.76158,8.306 C299.578106,9.10333333 300.63073,10.2343333 301.919451,11.699 C303.208172,13.1636667 304.257728,14.4333333 305.068119,15.508 L302.7513,17.692 L301.557314,16.132 C299.212913,16.184 296.232179,16.2793333 292.615111,16.418 C288.998043,16.5566667 286.509842,16.6693333 285.150508,16.756 C284.662241,16.7906667 284.303974,16.8253333 284.075707,16.86 L283.520935,13.584 C284.120536,13.4626667 284.55437,13.3543333 284.822438,13.259 C285.090505,13.1636667 285.372007,13.012 285.666942,12.804 C286.457746,12.2666667 287.591121,11.2656667 289.067067,9.801 C290.543013,8.33633333 291.675324,7.04066667 292.464,5.914 L295.413188,7.318 C294.409178,8.53133333 293.323201,9.74033333 292.155257,10.945 C290.987314,12.1496667 290.127207,12.9426667 289.574937,13.324 L299.04154,12.986 C297.858885,11.5993333 297.011493,10.6546667 296.499364,10.152 L298.76158,8.306 Z M301.707404,29.106 L284.105404,29.106 L285.014095,18.368 L302.616095,18.368 L301.707404,29.106 Z M299.071668,21.54 L288.047668,21.54 L287.67363,25.96 L298.69763,25.96 L299.071668,21.54 Z M141.617457,28.29 C141.018123,28.29 140.430093,28.2706667 139.853365,28.232 C139.276637,28.1933333 138.730545,28.1353333 138.21509,28.058 C137.699634,27.9806667 137.232511,27.9033333 136.813722,27.826 C136.394933,27.7486667 136.044629,27.6616667 135.762809,27.565 L136.049938,24.172 C136.349455,24.288 136.717456,24.3943333 137.153943,24.491 C137.590429,24.5876667 138.061567,24.6746667 138.567356,24.752 C139.073145,24.8293333 139.599495,24.8921667 140.146404,24.9405 C140.693314,24.9888333 141.237436,25.013 141.778769,25.013 C143.170769,25.013 144.183205,24.8148333 144.816078,24.4185 C145.448951,24.0221667 145.808743,23.3116667 145.895454,22.287 C145.934719,21.823 145.914683,21.4315 145.835344,21.1125 C145.756006,20.7935 145.581562,20.5131667 145.312013,20.2715 C145.042464,20.0298333 144.659294,19.8171667 144.162503,19.6335 C143.665712,19.4498333 143.010649,19.2516667 142.197312,19.039 C141.155247,18.7876667 140.293652,18.517 139.612527,18.227 C138.931401,17.937 138.391744,17.5745 137.993555,17.1395 C137.595366,16.7045 137.330207,16.1825 137.198076,15.5735 C137.065945,14.9645 137.037509,14.2153333 137.112768,13.326 C137.286191,11.2766667 138.015107,9.8025 139.299517,8.9035 C140.583927,8.0045 142.395799,7.555 144.735132,7.555 C145.817799,7.555 146.80733,7.6275 147.703727,7.7725 C148.600123,7.9175 149.301141,8.08666667 149.80678,8.28 L149.534376,11.499 C149.271889,11.4023333 148.950994,11.3105 148.57169,11.2235 C148.192385,11.1365 147.778839,11.0543333 147.331049,10.977 C146.88326,10.8996667 146.419335,10.8416667 145.939274,10.803 C145.459213,10.7643333 145.006516,10.745 144.581182,10.745 C143.363182,10.745 142.455109,10.9093333 141.856963,11.238 C141.258816,11.5666667 140.917205,12.2336667 140.83213,13.239 C140.799409,13.6256667 140.810672,13.9495 140.865918,14.2105 C140.921165,14.4715 141.070699,14.7035 141.31452,14.9065 C141.558341,15.1095 141.914556,15.298 142.383165,15.472 C142.851774,15.646 143.474231,15.8296667 144.250538,16.023 C145.40533,16.313 146.350653,16.6223333 147.086507,16.951 C147.82236,17.2796667 148.39217,17.6856667 148.795935,18.169 C149.1997,18.6523333 149.464785,19.2323333 149.591189,19.909 C149.717594,20.5856667 149.740713,21.3976667 149.660546,22.345 C149.493667,24.317 148.768766,25.8008333 147.485843,26.7965 C146.202919,27.7921667 144.24679,28.29 141.617457,28.29 Z M165.641551,22.664 L157.231551,22.664 L154.865998,28 L150.950998,28 L160.194137,7.874 L165.298137,7.874 L171.076998,28 L167.045998,28 L165.641551,22.664 Z M164.780501,19.474 L162.604009,11.267 L162.256009,11.267 L158.632501,19.474 L164.780501,19.474 Z M175.303137,7.874 L179.102137,7.874 L177.398998,28 L173.599998,28 L175.303137,7.874 Z M183.858137,7.874 L190.006137,7.874 L192.94396,19.764 L193.11796,19.764 L198.184137,7.874 L204.158137,7.874 L202.454998,28 L198.713998,28 L200.103014,11.586 L199.929014,11.586 L194.562571,23.94 L190.676571,23.94 L187.430014,11.586 L187.256014,11.586 L185.866998,28 L182.154998,28 L183.858137,7.874 Z M215.625457,28.29 C214.175457,28.29 212.902879,28.1353333 211.807722,27.826 C210.712566,27.5166667 209.821118,26.9705 209.133378,26.1875 C208.445639,25.4045 207.960047,24.346 207.676601,23.012 C207.393156,21.678 207.338145,19.9863333 207.511567,17.937 C207.683354,15.907 208.023858,14.225 208.533079,12.891 C209.042301,11.557 209.707042,10.4985 210.527302,9.7155 C211.347563,8.9325 212.331857,8.3815 213.480186,8.0625 C214.628514,7.7435 215.927678,7.584 217.377678,7.584 C218.827678,7.584 220.095014,7.7435 221.179686,8.0625 C222.264357,8.3815 223.155396,8.9325 223.852802,9.7155 C224.550209,10.4985 225.035801,11.557 225.309579,12.891 C225.583358,14.225 225.634354,15.907 225.462567,17.937 C225.289145,19.9863333 224.952656,21.678 224.453101,23.012 C223.953547,24.346 223.288806,25.4045 222.458878,26.1875 C221.628951,26.9705 220.645066,27.5166667 219.507222,27.826 C218.369379,28.1353333 217.075457,28.29 215.625457,28.29 Z M215.895407,25.1 C216.920074,25.1 217.767284,24.9695 218.437037,24.7085 C219.106791,24.4475 219.649057,24.0366667 220.063836,23.476 C220.478615,22.9153333 220.792119,22.1806667 221.004347,21.272 C221.216575,20.3633333 221.378315,19.2516667 221.489567,17.937 C221.597548,16.661 221.622727,15.5638333 221.565107,14.6455 C221.507486,13.7271667 221.31955,12.978 221.001299,12.398 C220.683047,11.818 220.211541,11.3926667 219.586779,11.122 C218.962017,10.8513333 218.137303,10.716 217.112636,10.716 C216.08797,10.716 215.235517,10.8513333 214.555279,11.122 C213.875041,11.3926667 213.326714,11.818 212.910299,12.398 C212.493884,12.978 212.179153,13.7271667 211.966107,14.6455 C211.753061,15.5638333 211.592548,16.661 211.484567,17.937 C211.373315,19.2516667 211.346908,20.3633333 211.405347,21.272 C211.463785,22.1806667 211.652948,22.9153333 211.972836,23.476 C212.292724,24.0366667 212.770291,24.4475 213.405537,24.7085 C214.040784,24.9695 214.87074,25.1 215.895407,25.1 Z" id="Combined-Shape"></path>
        </g>
    </g>
</svg>