<?xml version="1.0" encoding="UTF-8"?>
<svg width="16px" height="16px" viewBox="0 0 16 16" version="1.1" xmlns="http://www.w3.org/2000/svg" xmlns:xlink="http://www.w3.org/1999/xlink">
    <g id="云仿真设计稿" stroke="none" stroke-width="1" fill="none" fill-rule="evenodd">
        <g id="云仿真-场景管理--场景-展开" transform="translate(-296, -310)" fill="currentcolor" fill-rule="nonzero">
            <g id="树结构场景" transform="translate(248, 172)">
                <g id="编组" transform="translate(24, 24)">
                    <g id="编组-15备份" transform="translate(0, 30)">
                        <g id="编组-12" transform="translate(0, 76)">
                            <g id="首页1" transform="translate(24, 8)">
                                <path d="M6.40923238,2.66666667 L3.91993037,2.66666667 C3.22776675,2.66666667 2.66666667,3.22776675 2.66666667,3.91993037 L2.66666667,6.40923238 C2.66666667,7.101396 3.22776675,7.66249608 3.91993037,7.66249608 L6.40923238,7.66249608 C7.101396,7.66249608 7.66249608,7.101396 7.66249608,6.40923238 L7.66249608,3.91993037 C7.66249608,3.22776675 7.101396,2.66666667 6.40923238,2.66666667 L6.40923238,2.66666667 Z M3.91993037,3.50217581 L6.40923238,3.50217581 C6.63995822,3.50217581 6.82698695,3.68920453 6.82698695,3.91993037 L6.82698695,6.40923238 C6.82698695,6.63995822 6.63995822,6.82698695 6.40923238,6.82698695 L3.91993037,6.82698695 C3.68920453,6.82698695 3.50217581,6.63995822 3.50217581,6.40923238 L3.50217581,3.91993037 C3.50217581,3.68920453 3.68920453,3.50217581 3.91993037,3.50217581 Z M12.0800696,2.66666667 L9.59076762,2.66666667 C8.898604,2.66666667 8.33750392,3.22776675 8.33750392,3.91993037 L8.33750392,6.40923238 C8.33750392,7.101396 8.898604,7.66249608 9.59076762,7.66249608 L12.0800696,7.66249608 C12.7722332,7.66249608 13.3333333,7.101396 13.3333333,6.40923238 L13.3333333,3.91993037 C13.3333333,3.22776675 12.7722332,2.66666667 12.0800696,2.66666667 Z M9.59076762,3.50217581 L12.0800696,3.50217581 C12.3107955,3.50217581 12.4978242,3.68920453 12.4978242,3.91993037 L12.4978242,6.40923238 C12.4978242,6.63995822 12.3107955,6.82698695 12.0800696,6.82698695 L9.59076762,6.82698695 C9.36004178,6.82698695 9.17301305,6.63995822 9.17301305,6.40923238 L9.17301305,3.91993037 C9.17301305,3.68920453 9.36004178,3.50217581 9.59076762,3.50217581 Z M6.40923238,8.33750392 L3.91993037,8.33750392 C3.22776675,8.33750392 2.66666667,8.898604 2.66666667,9.59076762 L2.66666667,12.0800696 C2.66666667,12.7722332 3.22776675,13.3333333 3.91993037,13.3333333 L6.40923238,13.3333333 C7.101396,13.3333333 7.66249608,12.7722332 7.66249608,12.0800696 L7.66249608,9.59076762 C7.66249608,8.898604 7.101396,8.33750392 6.40923238,8.33750392 L6.40923238,8.33750392 Z M3.91993037,9.17301305 L6.40923238,9.17301305 C6.63995822,9.17301305 6.82698695,9.36004178 6.82698695,9.59076762 L6.82698695,12.0800696 C6.82698695,12.3107955 6.63995822,12.4978242 6.40923238,12.4978242 L3.91993037,12.4978242 C3.68920453,12.4978242 3.50217581,12.3107955 3.50217581,12.0800696 L3.50217581,9.59076762 C3.50217581,9.36004178 3.68920453,9.17301305 3.91993037,9.17301305 Z" id="Shape"></path>
                                <path d="M12.162644,8.66666667 L9.83735595,8.66666667 C9.19079727,8.66666667 8.66666667,9.19079727 8.66666667,9.83735595 L8.66666667,12.162644 C8.66666667,12.8092027 9.19079727,13.3333333 9.83735595,13.3333333 L12.162644,13.3333333 C12.8092027,13.3333333 13.3333333,12.8092027 13.3333333,12.162644 L13.3333333,9.83735595 C13.3333333,9.19079727 12.8092027,8.66666667 12.162644,8.66666667 Z M9.83735595,9.44712619 L12.162644,9.44712619 C12.3781679,9.44712619 12.5528738,9.62183205 12.5528738,9.83735595 L12.5528738,12.162644 C12.5528738,12.3781679 12.3781679,12.5528738 12.162644,12.5528738 L9.83735595,12.5528738 C9.62183205,12.5528738 9.44712619,12.3781679 9.44712619,12.162644 L9.44712619,9.83735595 C9.44712619,9.62183205 9.62183205,9.44712619 9.83735595,9.44712619 Z" id="Shape"></path>
                            </g>
                        </g>
                    </g>
                </g>
            </g>
        </g>
    </g>
</svg>