<?xml version="1.0" encoding="UTF-8"?>
<svg width="48px" height="48px" viewBox="0 0 48 48" version="1.1" xmlns="http://www.w3.org/2000/svg" xmlns:xlink="http://www.w3.org/1999/xlink">
    <title>icon_nothing</title>
    <g id="云平台-场景管理1.1" stroke="none" stroke-width="1" fill="none" fill-rule="evenodd">
        <g id="场景管理-icon" transform="translate(-43, -194)" stroke="#C9CCD1" stroke-width="3">
            <g id="icon/48px/暂无数据" transform="translate(43, 194)">
                <g id="编组-10" transform="translate(4, 10)">
                    <path d="M36,27.8181818 L4,27.8181818 C1.790861,27.8181818 2.705415e-16,26.0273208 0,23.8181818 L0,11.198946 L0,11.198946 L9.18004224,0.684614455 C9.55984512,0.249608462 10.1091371,-4.06822266e-16 10.6866148,0 L29.3133852,3.10862447e-15 C29.8908629,3.00254354e-15 30.4401549,0.249608462 30.8199578,0.684614455 L40,11.198946 L40,11.198946 L40,23.8181818 C40,26.0273208 38.209139,27.8181818 36,27.8181818 Z" id="路径-3"></path>
                    <path d="M39,11.8181818 C39.5522847,11.8181818 40,12.2658971 40,12.8181818 L40,25.8181818 C40,26.9227513 39.1045695,27.8181818 38,27.8181818 L2,27.8181818 C0.8954305,27.8181818 1.3527075e-16,26.9227513 0,25.8181818 L0,12.8181818 C-6.76353751e-17,12.2658971 0.44771525,11.8181818 1,11.8181818 L14.6208618,11.8182382 C14.5712683,12.1138645 14.5454545,12.4175541 14.5454545,12.7272727 C14.5454545,15.739735 16.9875377,18.1818182 20,18.1818182 C23.0124623,18.1818182 25.4545455,15.739735 25.4545455,12.7272727 C25.4545455,12.4175541 25.4287317,12.1138645 25.3791382,11.8182382 Z" id="形状结合" stroke-linejoin="round"></path>
                </g>
            </g>
        </g>
    </g>
</svg>