<?xml version="1.0" encoding="UTF-8"?>
<svg width="32px" height="32px" viewBox="0 0 32 32" version="1.1" xmlns="http://www.w3.org/2000/svg" xmlns:xlink="http://www.w3.org/1999/xlink">
    <title>录音-hover</title>
    <g id="云平台-场景管理1.1" stroke="none" stroke-width="1" fill="none" fill-rule="evenodd">
        <g id="云平台-场景管理-场景生成-语义生成-默认" transform="translate(-502, -814)">
            <g id="编组-5" transform="translate(486, 742)">
                <g id="编组" transform="translate(16, 72)">
                    <rect id="矩形" x="0" y="0" width="32" height="32"></rect>
                    <g id="按住录音" transform="translate(9, 6)" fill="currentColor" fill-rule="nonzero">
                        <path d="M7,0 C4.73083005,0 2.89130435,1.86657755 2.89130435,4.16911765 L2.89130435,9.72794118 C2.89130435,12.0304813 4.73083005,13.8970588 7,13.8970588 C9.26916995,13.8970588 11.1086957,12.0304813 11.1086957,9.72794118 L11.1086957,4.16911765 C11.1086957,1.86657755 9.26916995,0 7,0 Z M13.2391304,7.56617647 C12.8189138,7.56617647 12.4782609,7.91183898 12.4782609,8.33823529 L12.4782609,9.57352941 C12.4782609,12.6435829 10.0255599,15.1323529 7,15.1323529 C3.97444007,15.1323529 1.52173913,12.6435829 1.52173913,9.57352941 L1.52173913,8.33823529 C1.52173913,7.91183898 1.18108622,7.56617647 0.760869565,7.56617647 C0.340652908,7.56617647 0,7.91183898 0,8.33823529 L0,9.57352941 C0.00446745343,13.1956154 2.69111001,16.2356074 6.23913043,16.6332353 L6.23913043,18.2205882 L3.04347826,18.2205882 C2.6232616,18.2205882 2.2826087,18.5662507 2.2826087,18.9926471 C2.2826087,19.4190434 2.6232616,19.7647059 3.04347826,19.7647059 L10.9565217,19.7647059 C11.3767384,19.7647059 11.7173913,19.4190434 11.7173913,18.9926471 C11.7173913,18.5662507 11.3767384,18.2205882 10.9565217,18.2205882 L7.76086957,18.2205882 L7.76086957,16.6332353 C11.3086186,16.2350718 13.9949783,13.1953998 14,9.57352941 L14,8.33823529 C14,7.91183898 13.6593471,7.56617647 13.2391304,7.56617647 Z" id="形状"></path>
                    </g>
                </g>
            </g>
        </g>
    </g>
</svg>