<?xml version="1.0" encoding="UTF-8"?>
<svg width="24px" height="24px" viewBox="0 0 24 24" version="1.1" xmlns="http://www.w3.org/2000/svg" xmlns:xlink="http://www.w3.org/1999/xlink">
    <title>集复制</title>
    <g id="云平台-场景管理1.1" stroke="none" stroke-width="1" fill="none" fill-rule="evenodd">
        <g id="场景管理-我的场景-具体场景-进入某一场景集" transform="translate(-436, -1012)" fill="currentcolor" fill-rule="nonzero">
            <g id="树结构场景" transform="translate(248, 76)">
                <g id="编组" transform="translate(-0, 0)">
                    <g id="编组-2" transform="translate(124, 936)">
                        <g id="集复制" transform="translate(64, 0)">
                            <g id="fuzhi-3" transform="translate(12.15, 12.1875) scale(1, -1) translate(-12.15, -12.1875)translate(6.3, 6.3)">
                                <path d="M8.37042521,2.77500001 L8.37042521,3.77500001 L10.7,3.77500001 L10.7,10.775 L3.7,10.775 L3.7,8.98777203 L2.7,8.98777203 L2.7,11.275 C2.7,11.55 2.925,11.775 3.2,11.775 L11.2,11.775 C11.475,11.775 11.7,11.55 11.7,11.275 L11.7,3.27500001 C11.7,3 11.475,2.77500001 11.2,2.77500001 L8.37042521,2.77500001 Z" id="路径"></path>
                                <path d="M9,8.5 L9,0.5 C9,0.225000002 8.77499999,0 8.5,0 L0.5,0 C0.225000002,0 0,0.225000002 0,0.5 L0,8.5 C0,8.775 0.225000002,9 0.5,9 L8.5,9 C8.775,9 9,8.77499999 9,8.5 L9,8.5 Z M8,8 L0.999999998,8 L0.999999998,0.999999998 L8,0.999999998 L8,8 Z" id="形状"></path>
                            </g>
                        </g>
                    </g>
                </g>
            </g>
        </g>
    </g>
</svg>