<svg width="16px" height="16px" viewBox="0 0 16 16" version="1.1" xmlns="http://www.w3.org/2000/svg" xmlns:xlink="http://www.w3.org/1999/xlink">
    <title>icon_label_n</title>
    <g id="云仿真设计稿" stroke="none" stroke-width="1" fill="none" fill-rule="evenodd">
        <g id="云仿真-场景管理-地图详情" transform="translate(-25.000000, -529.000000)">
            <g id="左侧导航栏" transform="translate(0.000000, 60.000000)">
                <g id="Group-6" transform="translate(8.000000, 17.000000)">
                    <g id="侧边导航/亮色-二级菜单-收起" transform="translate(0.000000, 440.000000)">
                        <g id="Group" transform="translate(17.000000, 12.000000)">
                            <polygon id="路径" points="0 0 16 0 16 16 0 16"></polygon>
                            <rect id="Rectangle" stroke="#60656E" stroke-width="1.5" x="1.8" y="1.7" width="12.5" height="12.5"></rect>
                            <path d="M6.5,4.3 C7.11518024,4.3 7.64386519,4.67033032 7.8752823,5.20021841 L12,5.2 L12,6.7 L7.69945779,6.70086746 C7.42575614,7.06470804 6.99035576,7.3 6.5,7.3 C6.00964424,7.3 5.57424386,7.06470804 5.30054221,6.70086746 L4,6.7 L4,5.2 L5.1247177,5.20021841 C5.35613481,4.67033032 5.88481976,4.3 6.5,4.3 Z M9.5,8.4 C8.88481976,8.4 8.35613481,8.77033032 8.1247177,9.30021841 L4,9.3 L4,10.8 L8.30054221,10.8008675 C8.57424386,11.164708 9.00964424,11.4 9.5,11.4 C9.99035576,11.4 10.4257561,11.164708 10.6994578,10.8008675 L12,10.8 L12,9.3 L10.8752823,9.30021841 C10.6438652,8.77033032 10.1151802,8.4 9.5,8.4 Z" id="Combined-Shape" fill="#60656E"></path>
                        </g>
                    </g>
                </g>
            </g>
        </g>
    </g>
</svg>