<?xml version="1.0" encoding="UTF-8"?>
<svg width="16px" height="16px" viewBox="0 0 16 16" version="1.1" xmlns="http://www.w3.org/2000/svg" xmlns:xlink="http://www.w3.org/1999/xlink">
    <title>icon_traffic_n</title>
    <g id="首页" stroke="none" stroke-width="1" fill="none" fill-rule="evenodd">
        <g id="云仿真-首页-默认" transform="translate(-25, -816)">
            <g id="左侧导航栏" transform="translate(0, 60)">
                <g id="Group-6" transform="translate(8, 72)">
                    <g id="Group-7" transform="translate(0, 384)">
                        <g id="侧边导航/亮色-二级菜单-收起" transform="translate(0, 288)">
                            <g id="Group" transform="translate(17, 12)">
                                <polygon id="路径" points="0 0 16 0 16 16 0 16"></polygon>
                                <g id="Group-3" transform="translate(2.5, 1.3)">
                                    <path d="M7.75,0.8 L10,0.8 L11,13.3 L8.25,13.3 M2.75,13.3 L0,13.3 L1,0.8 L3.25,0.8" id="Shape" stroke="#60656E" stroke-width="1.5"></path>
                                    <path d="M4.8,0 L6.3,0 L6.3,2.6 L4.8,2.6 Z M4.8,4.3 L6.3,4.3 L6.3,7.8 L4.8,7.8 Z M4.8,9.6 L6.3,9.6 L6.3,14.1 L4.8,14.1 Z" id="Combined-Shape" fill="#60656E"></path>
                                </g>
                            </g>
                        </g>
                    </g>
                </g>
            </g>
        </g>
    </g>
</svg>